<?xml version="1.0" encoding="utf-8"?>
<!-- Generator: Adobe Illustrator 28.2.0, SVG Export Plug-In . SVG Version: 6.00 Build 0)  -->
<svg version="1.1" id="Capa_1" xmlns="http://www.w3.org/2000/svg" xmlns:xlink="http://www.w3.org/1999/xlink" x="0px" y="0px"
	 viewBox="0 0 75.9 24" style="enable-background:new 0 0 75.9 24;" xml:space="preserve">
<style type="text/css">
	.st0{fill:none;stroke:#354C58;stroke-width:2;stroke-linecap:round;stroke-linejoin:round;}
	.st1{fill:#6C93B5;stroke:#6C93B5;stroke-width:2;stroke-linecap:round;stroke-linejoin:round;}
	.st2{fill:#354C58;}
</style>
<path class="st0" d="M5,3h14c1.1,0,2,0.9,2,2v14c0,1.1-0.9,2-2,2H5c-1.1,0-2-0.9-2-2V5C3,3.9,3.9,3,5,3z"/>
<path class="st1" d="M7,7v10"/>
<path class="st1" d="M11,7v10"/>
<path class="st1" d="M15,7l2,10"/>
<g>
	<path class="st2" d="M26.1,5.7c0.6-0.1,1.5-0.2,2.5-0.2c1.3,0,2.2,0.3,2.8,0.8c0.6,0.5,0.9,1.2,0.9,2.1c0,0.9-0.3,1.6-0.8,2.2
		c-0.7,0.7-1.8,1.1-3.1,1.1c-0.4,0-0.8,0-1-0.1v4.1h-1.3V5.7z M27.4,10.5c0.3,0.1,0.6,0.1,1.1,0.1c1.6,0,2.5-0.8,2.5-2.2
		c0-1.3-0.9-2-2.4-2c-0.6,0-1,0-1.2,0.1V10.5z"/>
	<path class="st2" d="M37.7,15.7l-0.1-0.9h0c-0.4,0.6-1.2,1.1-2.2,1.1c-1.5,0-2.2-1-2.2-2.1c0-1.8,1.6-2.7,4.4-2.7v-0.2
		c0-0.6-0.2-1.7-1.6-1.7c-0.7,0-1.4,0.2-1.9,0.5l-0.3-0.9c0.6-0.4,1.5-0.6,2.4-0.6c2.2,0,2.8,1.5,2.8,3v2.7c0,0.6,0,1.2,0.1,1.7
		H37.7z M37.5,11.9c-1.4,0-3.1,0.2-3.1,1.6c0,0.9,0.6,1.3,1.2,1.3c0.9,0,1.5-0.6,1.8-1.2c0-0.1,0.1-0.3,0.1-0.4V11.9z"/>
	<path class="st2" d="M40.9,10.8c0-0.9,0-1.7-0.1-2.4H42l0.1,1.2h0c0.5-0.9,1.4-1.4,2.6-1.4c1.8,0,3.1,1.5,3.1,3.7
		c0,2.6-1.6,3.9-3.3,3.9c-1,0-1.8-0.4-2.2-1.1h0v3.9h-1.3V10.8z M42.2,12.7c0,0.2,0,0.4,0.1,0.5c0.2,0.9,1,1.5,2,1.5
		c1.4,0,2.2-1.1,2.2-2.8c0-1.5-0.8-2.7-2.2-2.7c-0.9,0-1.7,0.6-2,1.6c0,0.2-0.1,0.4-0.1,0.5V12.7z"/>
	<path class="st2" d="M49.8,8.4l1.6,4.3c0.2,0.5,0.3,1.1,0.5,1.5h0c0.1-0.4,0.3-1,0.5-1.5l1.4-4.3h1.4l-2,5.2
		c-0.9,2.5-1.6,3.8-2.5,4.5c-0.6,0.6-1.3,0.8-1.6,0.9l-0.3-1.1c0.3-0.1,0.8-0.3,1.2-0.6c0.4-0.3,0.8-0.8,1.1-1.5
		c0.1-0.1,0.1-0.2,0.1-0.3c0-0.1,0-0.2-0.1-0.3l-2.7-6.7H49.8z"/>
	<path class="st2" d="M56.4,10.7c0-0.9,0-1.6-0.1-2.3h1.2l0,1.4h0.1c0.3-1,1.1-1.6,2-1.6c0.2,0,0.3,0,0.4,0v1.2c-0.1,0-0.3,0-0.5,0
		c-0.9,0-1.6,0.7-1.8,1.7c0,0.2-0.1,0.4-0.1,0.6v3.9h-1.3V10.7z"/>
	<path class="st2" d="M67.4,13.7c0,0.8,0,1.4,0.1,2h-1.2l-0.1-1.2h0c-0.3,0.6-1.1,1.4-2.4,1.4c-1.1,0-2.5-0.6-2.5-3.2V8.4h1.3v4
		c0,1.4,0.4,2.3,1.6,2.3c0.9,0,1.5-0.6,1.7-1.2c0.1-0.2,0.1-0.4,0.1-0.7V8.4h1.3V13.7z"/>
	<path class="st2" d="M69.4,14.3c0.4,0.3,1.1,0.5,1.7,0.5c1,0,1.4-0.5,1.4-1.1c0-0.6-0.4-1-1.3-1.3c-1.3-0.5-1.9-1.2-1.9-2.1
		c0-1.2,0.9-2.1,2.5-2.1c0.7,0,1.4,0.2,1.8,0.5l-0.3,1c-0.3-0.2-0.8-0.4-1.5-0.4c-0.8,0-1.2,0.4-1.2,1c0,0.6,0.4,0.9,1.4,1.2
		c1.3,0.5,1.9,1.1,1.9,2.2c0,1.3-1,2.2-2.7,2.2c-0.8,0-1.5-0.2-2-0.5L69.4,14.3z"/>
</g>
</svg>
